<mxfile host="app.diagrams.net" modified="2024-01-17T15:24:50.375Z" agent="Mozilla/5.0 (Windows NT 10.0; Win64; x64) AppleWebKit/537.36 (KHTML, like Gecko) Chrome/120.0.0.0 Safari/537.36" etag="bEzbvIc70LKlSlo6JwEI" version="22.1.20" type="github">
  <diagram name="Page-1" id="TR93Qj6P3qMj8oh4tTKZ">
    <mxGraphModel dx="3217" dy="2399" grid="0" gridSize="10" guides="1" tooltips="1" connect="1" arrows="1" fold="1" page="1" pageScale="1" pageWidth="827" pageHeight="1169" math="0" shadow="0">
      <root>
        <mxCell id="0" />
        <mxCell id="1" parent="0" />
        <mxCell id="UJ65HYksv7-CHMOgC7f_-2" value="" style="shape=image;verticalLabelPosition=bottom;labelBackgroundColor=default;verticalAlign=top;aspect=fixed;imageAspect=0;image=data:image/png,iVBORw0KGgoAAAANSUhEUgAABDYAAALdCAYAAADXgOM3AAAAAXNSR0IArs4c6QAAAARnQU1BAACxjwv8YQUAAAAJcEhZcwAADsMAAA7DAcdvqGQAAEM4SURBVHhe7d1BjGR3fSfwwTKEoEG2FEZYCFscyGYSzcEHAw3YEiAfLGYUWSaSJdabjIQPpjNYXMFacfbuShzMgPfEwdmz2ZzwwMqnjKX1wetEK5FxWCFZYbIyEgpzICvEvO1XXa+6urtqqrrr9//P//fq85Ge3F1VXfX6za9/9ft//arqTAcAAEBV//AP/zD9CtiUYAMAAKAywQbEEWwAAABUJtiAOIINAACAygQbEEewAQAAUJlgA+IINgAAACoTbEAcwQYAAEBlgg2II9gAAACoTLABcQQbAAAAlQk2II5gAwAAoDLBBsQRbAAAAFQm2IA4gg0AAIDKBBsQR7ABAABQmWAD4gg2AAAAKhNsQBzBBgAAQGWCDYgj2AAAAKhMsAFxBBsAAACVCTYgjmADAACgMsEGxBFsAAAAVCbYgDiCDQAAgMoEGxBHsAEAAFCZYAPiCDYAAAAqE2xAHMEGAABAZYINiCPYAAAAqEywAXEEGwAAAJUJNiCOYAMAAKAywQbEEWwAAABUJtiAOIINAACAygQbEEewAQAAUJlgA+IINgAAACoTbEAcwQYAAEBlgg2II9gAAACoTLABcQQbAAAAlQk2II5gAwAAoDLBBsQRbAAAAFQm2IA4gg0AAIDKBBsQR7ABAABQmWAD4gg2AAAAKhNsQBzBBgDcbb+53r3w7850Z87Mb3/W/ee/n14Ph/yq++k3HjpSL2e6z7/88+n1QAaCDYgj2ACAu60PNi7+506OwXr6YOMrnRwDchNsQBzBBgDcbXcINm6+8tVuZ+ffTc/guNm9cvHg/9Cf+8v/3v1yeju2yR2CjZ+/3H1lZ6d7qD+DY3e3+/znX+72b9b/zE73jZ/+avIdcPcJNiCOYAMA7rZFL0X5s/2g4+YrF7s/G16TcvNad21IP/qf2fnL7r9LNrbQopeifH4/6Pj5y3Nhxs+7lz+/6HKgBYINiCPYAIC7bcUZG385l170QcdsMXtOsLGdVpyx8Y2f7t1i369++o3uK3s3/PnLn/ceHNAYwQbEEWwAwN22ZrDxm+svdBeHszecsbHF1g82ul/9tPvGV3a73eHMDaAZgg2II9gAIK1/e/vF7uFDp+Of6T508ZXuF9Pr01j0UpQz5yaBxqEzNm6+0l0crj93sdv96kWfnLKVFr0U5Uz3UB9oHA02predXDe9pB13eEkNbAHBBsQRbACQVh9sfPGF69Pvere6Hz1zrjt0EdCo42ee9C+d2WkyhIF4gg2II9gAIK07BRv9dTs7O93DZz7UXXzlRvf2iw8f/F/hcy90sg+42+4QbPRnnvh0F0ZOsAFxBBsApLXopSjnpkHHJNgYXpbyb/+7u/b68AIVZ3VAGxa8FOWhb3STzOLQp7j4dBfGSbABcQQbAKR16IyNWz/qnpk7E+Po2RyHQxDBBtx9x8/YmDnyXiE+3YUxEmxAHMEGAGktCi+GszSOhh5fm72pqDM2oA3rBxs+3YUxEmxAHMEGAGkdDTb2Lpm8l0b/cpRD1/3b292LDx+crbG7+7Xu4ittfnbKcEr+MquuZ7vkrpcTBBuT27b66S5wOoINiGMyAoCG5F6oUpt6gbwEGxDHMx0ANMRClZNQL5CXYAPieKYDgIZYqHIS6gXyEmxAHM90ANAQC1VOQr1AXoINiOOZDgAaYqHKSagXyEuwAXE80wHQhGEB1vpW2qrHqbUfJ3XlypVuZ2ene/XVV6eXrK/V3ymDVceu1rEdHqf1LZq6ZxOCDYijmwLQhPnFR8tbaasep9Z+nNSwX/326KOPdq+//vr0mtVa/Z0yWHXsah3b4XFa36LN37e656QEGxBHNwWgCa0P+bX2b9Xj1NqPkxr26yMf+cjs60uXLnVvvfXW9BbLDbfn5FYdu1rHttbjnFap/RvuV91zGoINiKObAtCE1of8Wvu36nFq7cdJDfv161//uvvOd77TnT17dnbZ5cuXu3feeWd6y+OG23Fyq45drWNb63FOq9T+Dfer7jkNwQbE0U0BaELrQ36t/Vv1OLX246SO7tfbb7/dfetb3+o+8YlPTC4/d+5c9/zzz3fXr1+f3uJAq79TBquOXa1jW+txTqvU/h29X3XPSQg2II5uCkATWh/ya+3fqseptR8ntWy/+gVdv7DrF3j99f2Cr1/49QvAQau/Uwarjl2tY1vrcU6r1P4tu191zzoEGxBHNwWgCa0P+bX2b9Xj1NqPk1q1X/17DvTvPTDcrn9Pgu9+97vdb3/725U/y3Krjl2tY1vrcU6r1P6tul91z50INiCObgpAE1of8mvt36rHqbUfJ7XufvWfGtF/esRw++GU/XV+luNWHbtax7bW45xWqf1b937VPYsINiCObgpAdcNAv2hr1aJ9Lbkts+i2tsNbqxbta9S2zKLbltxatWhfx7aRj2AD4uiCAFS3aCgftlYt2teS2zKLbms7vLVq0b5Gbcssum3JrVWL9nVsG/kINiCOLghAdYsG8daH81r7t+pxau3HSa27X/3HXz7zzDOz299///1r/+wqUfdTSon9W3WfJR5zkVqPc1ql9m/d+93mumc5wQbE0QUBqG7RIN76cF5r/1Y9Tq39OKlV+3Xz5s3uypUr3b333ju53Qc/+MHum9/85uTyqN8p6n5KKbF/q+6zxGMuUutxTqvU/q26X3XPnQg2II4uCEB1iwbx1ofzWvu36nFq7cdJLduvmh97GXU/pZTYv1X3WeIxF6n1OKdVav+W3a+6Zx2CDYijCwJQ3aJBvPXhvNb+rXqcWvtxUkf3q1/A9Qu54dMf+gVev9DrF3xHRf1OUfdTSon9W3WfJR5zkVqPc1ql9u/o/ap7TkKwAXF0QQCqWzSItz6c19q/VY9Taz9Oativ3/3ud90Pf/jD7uMf//jssi984QuTj7tcZrjdpqLup5QS+7fqPks85iK1Hue0Su3fcL/qntMQbEAcXRCA6hYN4q0P57X2b9Xj1NqPkxr26/z587OvH3744e7VV1+d3mK54fabirqfUkrs36r7LPGYi9R6nNMqtX/D/ap7TkOwAXF0QQCqWzSID5e1vpW26nFq7cdJDfvVb5/85Ccn//e6/7/Y64j6naLup5QS+7fqPks85iLD47S+RZu/b3XPSQk2II4uCEB1iwbx4bLWt9JWPU6t/Tip/qMs+/9r/d3vfrf77W9/O710PVG/U6vHZlBi/1bdZ4nHXGR4nNa3aOqeTQg2II4uCEB1BvHlVh0bx2651o9Nif1bdZ8lHpO2+DfOS7ABcXRBAKoziC+36tg4dsu1fmxK7N+q+yzxmLTFv3Fegg2IowsCUJ1BfLlVx8axW671Y1Ni/1bdZ4nHpC3+jfMSbEAcXRCA6gziy606No7dcq0fmxL7t+o+SzwmbfFvnJdgA+LoggBUZxBfbtWxceyWa/3YlNi/VfdZ4jFpi3/jvAQbEEcXBKA6g/hyq46NY7dc68emxP6tus8Sj0lb/BvnJdiAOLogANUZxCmh9bpS95SgrvISbEAcXRCA6gzilNB6Xal7SlBXeQk2II4uCEB1BnFKaL2u1D0lqKu8BBsQRxcEoDqDOCW0XlfqnhLUVV6CDYijCwJQnUGcElqvK3VPCeoqL8EGxNEFAajOIE4JrdeVuqcEdZWXYAPi6IIAVGcQp4TW60rdU4K6ykuwAXF0QQCqM4hTQut1pe4pQV3lJdiAOLogANUZxCmh9bpS95SgrvISbEAcXRCA6gzilNB6Xal7SlBXeQk2II4uCEB1BnFKaL2u1D0lqKu8BBsQRxcEoDqDOCW0XlfqnhLUVV6CDYijCwJQnUGcElqvK3VPCeoqL8EGxNEFAajOIE4JrdeVuqcEdZWXYAPi6IIAVGcQp4TW60rdU4K6ykuwAXF0QQCqM4hTQut1pe4pQV3lJdiAOLogANUZxCmh9bpS95SgrvISbEAcXRCA6gzilNB6Xal7SlBXeQk2II4uCEB1BnFKaL2u1D0lqKu8BBsQRxcEoDqDOCW0XlfqnhLUVV6CDYijCwJQnUGcElqvK3VPCeoqL8EGxNEFAajOIE4JrdeVuqcEdZWXYAPi6IIAVGcQp4TW60rdU4K6ykuwAXF0QQCqM4hTQut1pe4pQV3lJdiAOLogANUZxCmh9bpS95SgrvISbEAcXRCA6gzilNB6Xal7SlBXeQk2II4uCEB1BnFKaL2u1D0lqKu8BBsQRxcEoDqDOCW0XlfqnhLUVV6CDYijCwJQnUGcElqvK3VPCeoqL8EGxNEFAajOIE4JrdeVuqcEdZWXYAPi6IIAVGcQp4TW60rdU4K6ykuwAXF0QQCqM4hTQut1pe4pQV3lJdiAOLogANUZxCmh9bpS95SgrvISbEAcXRCA6gzilNB6Xal7SlBXeQk2II4uCEB1BnFKaL2u1D0lqKu8BBsQRxcEoDqDOCW0XlfqnhLUVV6CDYijCwJQnUGcElqvK3VPCeoqL8EGxNEFAajOIE4JrdeVuqcEdZWXYAPi6IIAVGcQp4TW60rdU4K6ykuwAXF0QQCqM4hTQut1pe4pQV3lJdiAOLogANUZxCmh9bpS95SgrvISbEAcXRCA6gzilNB6Xal7SlBXeQk2II4uCEB1BnFKaL2u1D0lqKu8BBsQRxcEoDqDOCW0XlfqnhLUVV6CDYijCwJQnUGcElqvK3VPCeoqL8EGxNEFAajOIE4JrdeVuqcEdZWXYAPi6IIAVGcQp4TW60rdU4K6ykuwAXF0QQCqM4hTQut1pe4pQV3lJdiAOLogANUZxCmh9bpS95SgrvISbEAcXRCA6gzilNB6Xal7SlBXeQk2II4uCEB1BnFKaL2u1D0lqKu8BBsQRxcEoDqDOCW0XlfqnhLUVV6CDYijCwJQnUGcElqvK3VPCeoqL8EGxNEFAajOIE4JrdeVuqcEdZWXYAPi6IJsuV90r1z80Gwo2N8e7l58+/9NrwdKMIhTQut1pe4pQV3lJdiAOLogW64PNr7W/ejW9Nve9W935575UTd/ERDLIE4JrdeVuqcEdZWXYAPi6IJsuTsHG9e/fW42MJzpL/vFK93FnRe74YSO/vpnDv0wsA6DOCW0XlfqnhLUVV6CDYijC7LlFr0U5Zlp0HG9+/YXD0KMff3td/ZfqnIk5ADWZxCnhNbrSt1TgrrKS7ABcXTBJl3rdqdPUoe23WvT64lz+IyNo2dg/OKVi92HhuM/vDzl+re7L774dndj77qdvf/KNeDkhr4GkVqvK3VPCeoqL8EGxNEFm7QfbBzOMW50V3eOXsbmjr4UZe6MjEPmL+/P5Phat/vFRbcD1mEQp4TW60rdU4K6ykuwAXF0wSYtCjb2Lt090+1cvdF1N652O2d2u6tXd6ZPZjvd1RtzZ3nM/WD/M8MT3nD57H6mbvT3s7WJydFgY0//EpMP9S9Hud59+9zc8Zt7Q9HJe294g1E4teHvCiK1XlfqnhLUVV6CDYijCzZpUbAxd9kk2DgIJ/bDiz7cGK6bfn1ttzuzc7Xbv1V/xseyy50JAtRlEKeE1utK3VOCuspLsAFxdMEmzZ19MbfNzrKYDy8m386fcdH/7KIAY878z0/P/pBrADUNfQ0itV5X6p4S1FVegg2Iows2adEZG3OOhBFLg409k+umT3gHLz85OEtju1+GAtwtBnFKaL2u1D0lqKu8BBsQRxdsUlywceDwS06Gn+lfxiLXAGoziFNC63Wl7ilBXeUl2IA4umCTYoKNw5fPvcfG5Nv+PvonQi9DAeoziFNC63Wl7ilBXeUl2IA4umCTos7Y2D9LY3jCm/8klNl1Sx8kp+F3bX2DbedvgRJaryt1TwnqKi/BBsTRBRmV4cm99Q22nb8FSmi9rtQ9JairvAQbEEcXZFRaf3I3fMA+fwuU0HpdqXtKUFd5CTYgji7IqLT+5G74gH3+Fiih9bpS95SgrvISbEAcXZBRaf3J3fBBVtG162+BElqvK3VPCdtVV/vvQzf8zrMt6XvGCTYgjmfXEbh161Z3+fLl7qGHHuoefPDB7umnn+5u3rw5vXa7DE9wrWp9/+Coob8MtRvVX/wtUEJUXal7MsleV/3f25UrV7oLFy5MtmefffYOf2+L3mB//w3xM2Ybgg2I49k1uf7J4GMf+9jsSW3Y7rvvvu7dd9+d3mp7DL9/q1rfP5hXsr8M9wWRIupK3ZNN5rrq/97Onz8/+x2G7YEHHljy97b4kwOv7U4//W/6yYFX+08MnNzX8EmB+/rbHTzOwScM3i2CDYjj2TW5+f+jdHT70pe+NL3V9hh+91a1vn8wr2R/Ge4HIkXUlbonm8x11Z+p0e/7I4880r3xxhvdm2++2T3xxBOTy5588snpreYtCjbmLpsEG3vHY3qDG33AsXO167ON+a+HszwmYchdJNiAOJ5dk+tffjI8odkOtlYt2lebbZs3iLSoxlrcINKiGsu29aHG8HV/pkb/3/vvv3/6G85b/B4bs4BiEmzMn6XR3/7wWRuD2Vked5FgA+J4dk3uox/96LHmbhNs2GxZNoi0qMZa3CDSohrLtvUL/OHr9957b/Lfs2fPTn/DeYtfijIzfSnKwdXzwcbxUESwAePh2TW5p5566lCDnt8+9alPTW+1PYbfvVWt7x/M01/YRuoe6hle+jW8/KTfhssef/zx6a3mrRNszJ2hMff95P015n7QGRswLlZYyfXvGv3hD3949mQwbO9///u3slkOv3+rWt8/mKe/sI3UPdTT/731bxR69O+tP1tj8d/bOsHGQWAx/74ah4KNI7e7W/QUiGOFNQL9axEfe+yx2ZNB/3+UtrVRDsegVa3vHxw19Jc/+IM/6D7wgQ9sdX9he6h7qKf/e7t06dJsRurP1Fj+97beS1F2Z59+MveylGmYMbl852p3rQ89lt5RHfoKxLHCGpHhCWGbtX4M/BsBANtomIE23e5oGmzc3bhifYINiGOFNSJrNfyRa/0Y+DcCALbRMANtut2RYAO2lhXWiKzV8Eeu9WPg3wgA2EabzkBjnKEEGxDHCmtExtjwT2o4Bq1v0Jrbr+0uqNX3dX+d5X97wakc//jHyXaXX3cPYzT8fZ3Wpj/fIsEGxLHCGpExNvyTGo5B6xu0ZhJsvO+vD5++e+N73c7Ry2BUFr0R4Y3u6s4d3pwQOJVNZ6AxzlCCDYhjhTUiY2z4QB0Lg43br+0t+j7bff9Gn3H0H5m3M3lH+fdNTuO43b02e9f5vU0AQkqLP2Gh/1jIycdATl6vv1f3O32d73/SwvzHQ04+SlICAmvZdE7d9OdbJNiAOFbBIzLGhg/UsSjYmL9sEmzMXT/5/rPf7/aXeDe67+0t/D7bJyCQyqJgY+6y6cdDzq6/tvc3sXN1VvfO7ID1bTqnjnHOFWxAHKvgERljwwfqWPweG/tna/QOBxlH7Z+9Idggn8XvsTE7K2N6xsbsJI3575N9+gLcbcPf12lt+vMtEmxAHKvgERljwwfqWPhSlDl9sLH/EpSpyctUDhaC/SbYIJ/FL0WZORZeHJyl4WUocDKbzqmb/nyLBBsQxyp4RMbY8IE6ThZs7J+hcfR7wQb5nDTYOAg0+vfhkGvA+jadU8c45wo2II5V8IiMseEDdWwUbPSfnrLXewQb5HPyYGP/sv751stQ4CQ2nVPHOOcKNiCOVfCIjLHhA3Wc+KUo0zBj0nc+e7V77ej1kMIpgo3py1G8DAVOZtM5dYxzrmAD4lgFj8gYGz4AAPltOqeOcc4VbEAcq+ARGWPDBwAgv03n1DHOuYINiGMVPCJjbPgAAOS36Zw6xjlXsAFxrIJHZIwNHwCA/DadU8c45wo2II5V8IiMseEDAJDfpnPqGOdcwQbEsQoekTE2fAAAarjd/eylT8/myf3tnu7Rl9+ZXr+ZTefUTX++RYINiGMVPCJjbPgAANTQBxuf657/6fTb3u9/3D137/Pd/EWntemcOsY5V7ABcayCR2SMDR8AgBruFGzsX7e7+9x03rx3ersjZ3ncIQTZdE7d9OdbJNiAOFbBIzLGhg8AQA2LXopyOMC4d5p63P7ZS93Ooy9379z+x+7aT4aXqvy++/Fzw+2P23RO3fTnWyTYgDhWwSMyxoYPAEANh8/Y+P2Pn5sFGUev627/rHvpc/tnZ/Qhx6enM+hBEHLcpnPqGOdcwQbEsQoekTE2fAAAajgSXky+35m+eeiSMzZ+/+Pu6/1/J5c6Y+OkBBsQxyp4RMbY8AEAqOFosLGnPzPj031YsX/d7D027nm02887+uv358/+bI3d3a8v/RSVTefUTX++RYINiGMVPCJjbPgAANxtC0KPE9p0Th3jnCvYgDhWwSMyxoYPAMDdJtgoQbABcayCR2SMDR8AgPw2nVPHOOcKNiCOVfCIjLHhAwCQ36Zz6hjnXMEGxLEKHpExNnwAAPLbdE4d45wr2IA4VsEjMsaGDwBAfpvOqWOccwUbEMcqeETG2PABAMhv0zl1jHOuYAPiWAWPyBgbPgAA+W06p45xzhVsQByr4BEZY8MHACC/TefUMc65gg2IYxU8ImNs+AAA5LfpnDrGOVewAXGsgkdkjA0fAID8Np1TxzjnCjYgjlXwiIyx4QMAkN+mc+oY51zBBsSxCh6RMTZ8AADy23ROHeOcK9iAOFbBIzLGhg8AQH6bzqljnHMFGxDHKnhExtjwAQDIb9M5dYxzrmAD4lgFj8gYGz4AAPltOqeOcc4VbEAcq+ARGWPDBwAgv2FO3XQbE8EGxLEKHpExNnwAAFpwu3vt68eDhjP3XOl+Mrn6H7vvfeae7srkm+OO/dwptzERbEAcq+ARGWPDBwCgBfvBxj2Hkovb3T9+7zP7l60INpa5detWd+XKldkc++yzz3Y3b96cXjtugg2IYxU8IoINAADKWBRs7F362te7933u+907R4ON2691X5/OprOzOo7oQ43z58/PZthhe+CBB7p33313eqvxEmxAHKvgERmeDAAAINbiMzZml80HG4dCjrmzOo4YztR45JFHZnPsE088Mfnvk08+Ob3VeAk2IE7KVfDQ+GyLNwAAiLX4PTYmZ2tMrj4IM27/4/e6zyw5S2PehQsXJvfxxhtvzO6vP1Nj+Drztg7BBsQRbIxwAwCAWItfijIzH2y89vWlLz+Z98lPfnIyu/YL/GGOfe+992ZfZ97WIdiAOKmDDQAAoIYTBBtrnrFx+fLlyUzfv/ykf8PQPtQYLnv88cent8rlJOsUwQbEEWwAAAArrB9s7L9x6OH32Ji9ZGVOH2b0bxQ6zPbDdvbs2bSL/uF3WIdgA+IINgAAgBVOEGxMvv1e95npzH6nl6X076lx6dKlSZjRb/2ZGpkX/IINuDuaTAeGhrDpBgAAEGXRmuM0W0+wAXEEGwAAAGtYtOY4zdYTbECcpoON09r05wEAAI6KXKcINiCOYAMAAGANkesUwQbEEWwAAACsIXKdItiAOIINAACANUSuUwQbEEewAQAAsIbIdYpgA+IINgAAANYQuU4RbEAcwQYAAMAaItcpgg2II9gAAABYQ+Q6RbABcQQbAAAAa4hcpwg2II5gAwAAYA2R6xTBBsQRbAAAAKwhcp0i2IA4gg0AAIA1RK5TBBsQR7ABAACwhsh1imAD4gg2AAAA1hC5ThFsQBzBBgAAwBoi1ymCDYgTtPr/TXf9hT+Z/aHubx/p/sOPfjm97svdf/r7/VuuY/4P/jQ2/XkAAGAM2l2nCDYgTmCwcaQp/MvfdJf+9D91fy/YAAAA7op21ymCDYhTOdj4l+5vLu3/MZ8586dLm0hkwwAAALZVu+sUwQbECQw2jp7iNTSEg4bxL39zqfvIf/hRNznx6/oL3c7066Pm/+BPY9OfBwAAxqDddYpgA+IEBhsHSWjfGP50+OZQw/j309ez3VlkwwAAALZVu+sUwQbEKRJs7H+/c+xNeQ41ktkpYMdFNgwAAGBbtbtOEWxAnELBxp7fXO9e+JP+NK/567zHBgAAUEu76xTBBsRpcvUf2TAAAAAiRK5TBBsQR7ABAACwhsh1imAD4gg2AAAA1hC5ThFsQBzBBgAAwBoi1ymCDYgj2AAAAFhD5DpFsAFxBBsAAABriFynCDYgjmADAABgDZHrFMEGxBFsAAAArCFynSLYgDiCDQAAgDVErlMEGxBHsAEAALCGyHWKYAPiCDYAAADWELlOEWxAHMEGAADAGiLXKYINiCPYAAAAWEPkOkWwAXEEGwAAAGuIXKcINiCOYAMAAGANkesUwQbEEWwAAACsIXKdItiAOE0HG5tuAAAAURatOU6z9QQbEEewsXWudbsLjtWZ3WvT6wEA4Pfdj59bMDPe+43up9NbbKNjx+OUW0+wAXFSrv7nGwJdd+vWre7y5cvdQw891D344IPd008/3d28eXN67VH7wcbhHONGd3Xn6GUAAGyv/WDj3m/Mxxi3u5+99Jkjl22mn2OvXLnSXbhwYbI9++yzd5hj23eSdYpgA+IINpLrnww+9rGPzY7JsN13333du+++O73VvEXBxt6lu2e6nas3Zl/P7uvQDefP9tjd+w4AgHFaFGzsXfrj57p7Pv+D7p3bP+te+sy93ZWrL3WfmcyG93Sf/8E7/S32fm74urc8DOnn2PPnzx/MndPtgQceWDLHtm/4HdYh2IA4go3k+jM1huNxdPvSl740vdW8RcHG3GXXdrszO1e7/YijP5Njp9vPOw6f1XHj6o6XrwAAjNaiYGPuskmwsTdzTl+acvtnL3WfuefzXZ9nzMKP/kemAciikzz6MzX6mfWRRx7p3njjje7NN9/snnjiicllTz755PRWuQxz+DoEGxAndbBhu/P2h3/4h9MjNm/+rIuDbThb43CwMefG1W7HWRoAAFtiP8Q4OjMeDizmz8w4OFNjPuSYfL3kfTn6l57099mHGsP992dqDF9n3tYh2IA4go0Rbx/4wAemR2ze4peizJucjTG9j0OBh2ADAGBLLDpjY86xMzEOgo2D6+78nhyf/OQnJ/Nmv8AfZs/33ntv9nXmbR2CDYiTMtjgwFNPPbWwmfbbpz71qemt5q0ONg7MvfzEGRsAAFtknWBj7oyNQ98Pgca1vftY/DKU3vCS6uHlJ/02XPb4449PbzVegg2II9hIrn/X6A9/+MOzJ4Nhe//737+kWd452Dj83hnz77Fx+Ocmt1v0khUAAEZgnWDj4KUp8y8/2b96+qaid/h42H6O7d8o9Ogce/bs2a1Y9As2II5gYwT61yI+9thjsyeD/kyN5Y1y1Rkb+2dpDPc1eylKb3LWxnCdszcAAMZrvZei7O4+N50Nj5yZMQ0+lv78VD/HXrp0aXof+2dqbMuCX7ABcQQbiQwNf9MNAAA2Mg02VuQWM4tm0tNsYyLYgDhWuYksau6n2QAAYCOCjY0JNiCOVW4imzb0MT4hAADQPnPscYINiGOVm4gnBAAAMjLHHifYgDhWuYl4QgAAICNz7HGCDYhjlZuIJwQAADIyxx4n2IA4VrmJeEIAACAjc+xxgg2IY5WbiCcEAAAyMsceJ9iAOFa5iXhCAAAgI3PscYINiGOVm4gnBAAAMjLHHifYgDhWuYl4QgAAICNz7HGCDYhjlZuIJwQAADIyxx4n2IA4VrmJeEIAACAjc+xxgg2IY5WbiCcEAAAyMsceJ9iAOFa5iXhCAAAgI3PscYINiGOVm4gnBAAAMjLHHifYgDhWuYl4QgAAICNz7HGCDYhjlRvtX/+u+/Yf7zfe2Xbur7q/vTm9fgObNvRNfx4AgBEzx1Yl2IA4VrnR+ieEi/+lm29Tv3zly92F/7J54/KEAABAMebYqgQbEMcqN9odnxB+2b3y5f2m3G/7l/1r93ff/uPZZWcuHP7ZecNtTmvTnwcAYMTuNMdOrtvtdodZdjKz9nPsTvdXwykdv3yl+/KSWdYce5xgA+JY5Ubrm/7RU/iGBr/X7L/6V3/bHTqb71/f6q5dHy7pg48L3bJQfNOGvunPAwAwYneaYyfXDXPqQaDxr3/37W5nMt8eCTmO2HQO3fTnWyTYgDhWudEOJd1Hg4rDZ2cMp/X1Twh/PL3szBnBBgAAd8Gd5thD1+3PrxcnV+7d7qt/1f3tjb3rd5a/H4c59jjBBsSxyo12pOlPvl/U5IfL35o/i8MZGwAA3CV3mmP7rxecsdH75Stf7S7ufnV65sZi5tjjBBsQxyo32tEnhD2TMzL60/j61x1Om3K/zV6vODvl70K3u/ek4BQ+AACqu9McO7nu4D02zs2HGJMZd/n/nOuZY48TbEAcq9xEPCEAAHBXLAg9TsIce5xgA+JY5SbiCQEAgLtCsBFOsAFxrHIT8YQAAEBG5tjjBBsQxyo3EU8IAABkZI49TrABcaxyE/GEAABARubY4wQbEMcqNxFPCAAAZGSOPU6wAXGschPxhAAAQEbm2OMEGxDHKjcRTwgAAGRkjj1OsAFxrHIT8YQAAEBG5tjjBBsQxyo3EU8IAABkZI49TrABcaxyE/GEAABARubY4wQbEMcqNxFPCAAAZGSOPU6wAXGschPxhAAAQEbm2OMEGxDHKjcRTwgAAGRkjj1OsAFxrHIT8YQAAEBG5tjjBBsQxyo3EU8IAABkZI49TrABcaxyExka+qYbAADUtGgmPc02JoINiGOVm8ii5n6aDQAAalo0k55mGxPBBsSxyh2RMTZ8AADGbxvnWMEGxLEKHhHBBgAAGQk2gE1YBY+IYAMAgIwEG8AmrIJHRLABALBdhvlvLNs2EWxAHKvgEdnGJwQAgG02HwqMYdsmgg2IYxU8Itv4hAAAsM3Mf3kJNiCOLjgintgAALaL+S8vwQbE0QVHxBMbAMB2Mf/lJdiAOLrgiHhiAwDYLua/vAQbEEcXHBFPbMC4XOt2p33t0LZ7bXo9AENvJB/BBsTRBUfEExvQulu3bnVXrlzpLly4MNmeffbZ7ubNm9Nrj9oPNg7nGDe6qztHLwPYXua/vAQbEEcXHBFPbEDL+lDj/Pnzs141bA888ED37rvvTm81b1GwsXfp7plu5+qNrrtxtds5s9tdvbozva+d7uqNubM85n6w/5nZY87f4bXdg8v3NoEJkM3Qv8hHsAFxdMER8cQGtKw/U6PvUY888kj3xhtvdG+++Wb3xBNPTC578sknp7eatyjYmLtsEmxMQ47+mkl40Ycbw3XTr/vwYudqt3+r/oyPBbeZfLszdzuAHMx/eQk2II4uOCLDE5vNZrO1vPWhxvB1f6ZG/9/7779/2snmzZ19MbcNQcbCYGKWgvQ/uyjYuIN1bwfQkKE3ko9gA+LogiMyP/jbbDZbq1s/yA1fv/fee5P/nj17dtrJ5i06Y2PO9KUow9VLg409k+umjzkLRvYceolKvwk2gGSG/kU+gg2IowsCUMXly5cnw/fw8pN+Gy57/PHHp7eaFxdsHJh789HJ+2sc/LwzNoCMhn5KPoINiKMLAlBF/+kn/RuFDkP4sPVnaywe7mKCjcOXz73HxqFgYz/wEGwA2Qy9lHwEGxBHFwSgmv49NS5dujQbxPszNZYPdlFnbExDi+ljHrwUZf7yvdteO3x/ABkMvY18BBsQRxcEoDqDOEAM/TQvwQbE0QUBqM4gDhBDP81LsAFxdEEAqjOIA8TQT/MSbEAcXRCA6gziADH007wEGxBHFwSgOoM4QAz9NC/BBsTRBQGoziAOEEM/zUuwAXF0QQCqM4gDxNBP8xJsQBxdEIDqDOIAMfTTvAQbEEcXBKA6gzhADP00L8EGxNEFAajOIA4QQz/NS7ABcXRBAKoziAPE0E/zEmxAHF0QgOoM4gAx9NO8BBsQRxcEoDqDOEAM/TQvwQbE0QUBqM4gDhBDP81LsAFxdEEAqjOIA8TQT/MSbEAcXRCA6gziADH007wEGxBHFwSgOoM4QAz9NC/BBsTRBQGoziAOEEM/zUuwAXF0QQCqM4gDxNBP8xJsQBxdEIDqDOIAMfTTvAQbEEcXBKA6gzhADP00L8EGxNEFAajOIA4QQz/NS7ABcXRBAKoziAPE0E/zEmxAHF0QgOoM4gAx9NO8BBsQRxcEoDqDOEAM/TQvwQbE0QUBqM4gDhBDP81LsAFxdEEAqjOIA8TQT/MSbEAcXRCA6gziADH007wEGxBHFwSgOoM4QAz9NC/BBsTRBQGoziAOEEM/zUuwAXF0QQCqM4gDxNBP8xJsQBxdEIDqDOIAMfTTvAQbEEcXBKA6gzhADP00L8EGxNEFAajOIA4QQz/NS7ABcXRBAKoziAPE0E/zEmxAHF0QgOoM4gAx9NO8BBsQRxcEoDqDOEAM/TQvwQbE0QUBqM4gDhBDP81LsAFxdEEAqjOIA8TQT/MSbEAcXRCA6gziADH007wEGxBHFwSgOoM4QAz9NC/BBsTRBQGoziAOEEM/zUuwAXF0QQCqM4gDxNBP8xJsQBxdEIDqDOIAMfTTvAQbEEcXBKA6gzhADP00L8EGxNEFAajOIA4QQz/NS7ABcXRBAKoziAPE0E/zEmxAHF0QgOoM4gAx9NO8BBsQRxcEoDqDOEAM/TQvwQbE0QUBqM4gDhBDP81LsAFxdEEAqjOIA8TQT/MSbEAcXRCA6gziADH007wEGxBHFwSgOoM4QAz9NC/BBsTRBQGoziAOEEM/zUuwAXF0QQCqM4gDxNBP8xJsQBxdEIDqDOIAMfTTvAQbEEcXBKA6gzhADP00L8EGxNEFAajOIA4QQz/NS7ABcXRBAKoziAPE0E/zEmxAHF0QgOoM4gAx9NO8BBsQRxcEoDqDOEAM/TQvwQbE0QUBqM4gDhBDP81LsAFxdEEAqjOIA8TQT/MSbEAcXRCA6gziADH007wEGxBHFwSgOoM4QAz9NC/BBsTRBQGoziAOEEM/zUuwAXF0QQCqM4gDxNBP8xJsQBxdEIDqDOIAMfTTvAQbEEcXBKA6gzhADP00L8EGxNEFAajOIA4QQz/NS7ABcXRBAKoziAPE0E/zEmxAHF0QgOoM4gAx9NO8BBsQRxcEoDqDOEAM/TQvwQbE0QUBqM4gDhBDP81LsAFxdEEAqjOIA8TQT/MSbEAcXRCA6gziADH007wEGxBHFwSgOoM4QAz9NC/BBsTRBQGoziAOEEM/zUuwAXF0QQCqM4gDxNBP8xJsQBxdEIDqDOIAMfTTvAQbEEcXBKA6gzhADP00L8EGxNEFAajOIA4QQz/NS7ABcXRBAKoziAPE0E/zEmxAHF0QgOoM4gAx9NO8BBsQRxcEoDqDOEAM/TQvwQbE0QUBqM4gDhBDP81LsAFxdEEAqjOIA8TQT/MSbEAcXRCA6gziADH007wEGxBHFwSgOoM4QAz9NC/BBsTRBQGoziAOEEM/zUuwAXF0QQCqM4gDxNBP8xJsQBxdEIDqDOIAMfTTvAQbEEcXBKA6gzhADP00L8EGxNEFAajOIA4QQz/NS7ABcXRBAKoziAPE0E/zEmxAHF0QgOoM4gAx9NO8BBsQRxcEoDqDOEAM/TQvwQbE0QUBqM4gDhBDP81LsAFxdEEAqjOIA8TQT/MSbEAcXRCA6gziADH007wEGxBHFwSgOoM4QAz9NC/BBsTRBQGoziAOEEM/zUuwAXF0QQCqM4gDxNBP8xJsQBxdEIDqDOIAMfTTvAQbEEcXBKA6gzhADP00L8EGxNEFAajOIA4QQz/NS7ABcXRBAKoziAPE0E/zEmxAHF0QgOoM4gAx9NO8BBsQRxcEoDqDOEAM/TQvwQbE0QUBqM4gDhBDP81LsAFxdEEAqjOIA8TQT/MSbEAcXRCA6gziADH007wEGxBHFwSgOoM4QAz9NC/BBsTRBQGoziAOEEM/zUuwAXF0QQCqM4gDxNBP8xJsQBxdEIDqDOIAMfTTvAQbEEcXBKA6gzhADP00L8EGxNEFAajOIA4QQz/NS7ABcXRBAKoziAPE0E/zEmxAHF0QgOoM4rTi9mu7s3o82N7X/fW1/etvfG+ne9/wDTRoqFvyEWxAHF0QgOoM4rRiEmy876+7Q9HFje91O9PLBBu0Tj/NS7ABcXRBAKoziNOKhcHG7de63TOf7b5/4yDYmNzus9/v9i7aNxd+wN2kn+Yl2IA4uiAA1RnEacWiYGP+stkZG3NhR8+ZHLRCP81LsAFxdEEAqjOI04pJiDGtx4NtUYBxo/vezpnus5Mr+q8P3ocD7qahbslHsAFxdEEAqjOI04qFL0WZM39mxuxrL0OhIfppXoINiKMLAlCdQZxWnCTYmAUaez/jZSi0Qj/NS7ABcXRBAKoziNOKEwUb05ejzH8cLNxt+mlegg2IowsCUJ1BnFacLNjY//5Ot4fa9NO8BBsQRxcEoDqDOEAM/TQvwQbE0QUBqM4gDhBDP81LsAFxdEEAqjOIA8TQT/MSbEAcXRCA6gziwLb4/Y+fm/W8g+3e7vmf9tfe7n720qe7e/e/OZXhPslHsAFxdEEAqjOI07Jbt251ly9f7h566KHuwQcf7J5++unu5s2b02vhZCbBxr3Pd/PRxe2fvdR9enLZ6YONoU6HfqpO8xFsQBxTJQDVCTZoVb9Y/NjHPjar0WG77777unfffXd6K1jfomBj78LuuXse7V5+50iw0V8+V3fLAg91Og6CDYhjqgSgumEIh9bM/x/wo9uXvvSl6a1gfYuCjYPL5oKN2z/rXvr0Pd2jL78zuc3krI5J+DH59hB1Og6CDYhjqgSgumEAh0jzi7uWN7bLwvfYmAUWd3gpyuysjun3c/qXSR27zyMb7RNsQBxdD4DqDN6UML+oa3ljuyx8KcrM4WDjWAiyJNj46Ec/evh2CzbaJ9iAOLoeANUZvCkhoq6eeuqp2f0c3T71qU9Nb3U6w/2wXdYONibvrzF8WsqeO5yxUbJOqUewAXE8uwJQ3TCAQ6SIuuo/VeLDH/7w7L6G7f3vf//Gi5Dhvtgupws29i9fdsZGyTqlHv9WEMezKwDVDUM4RIqqq/5TJR577LHZ/fX/BzxiARK1f+Sy/ktRpmHGpE7u6R79/mvdS5+eO4PjiFJ1Sj3+vSCOZ1cAqrPAo4Toumr9/qCnrvISbEAcXRCA6gzilBBdV63fH/TUVV6CDYijCwJQnUGcEqLrqvX7g566ykuwAXF0QQCqM4hTQut1pe4pQV3lJdiAOLogANUZxCmh9bpS95SgrvISbEAcXRCA6gzilNB6Xal7SlBXeQk2II4uCEB1BnFKaL2u1D0lqKu8BBsQRxcEoDqDOCW0XlfqnhLUVV6CDYijCwJQnUGcElqvK3VPCeoqL8EGxNEFAajOIE4JrdeVuqcEdZWXYAPi6IIAVGcQp4TW60rdU4K6ykuwAXF0QQCqM4hTQut1pe4pQV3lJdiAOLogANUZxCmh9bpS95SgrvISbEAcXRCA6gzilNB6Xal7SlBXeQk2II4uCEB1BnFKaL2u1D0lqKu8BBsQRxcEoDqDOCW0XlfqnhLUVV6CDYijCwJQnUGcElqvK3VPCeoqL8EGxNEFAajOIE4JrdeVuqcEdZWXYAPi6IIAVGcQp4TW60rdU4K6ykuwAXF0QQCqM4hTQut1pe4pQV3lJdiAOLogANUZxCmh9bpS95SgrvISbEAcXRCA6gzilNB6Xal7SlBXeQk2II4uCEB1BnFKaL2u1D0lqKu8BBsQRxcEoDqDOCW0XlfqnhLUVV6CDYijCwJQnUGcElqvK3VPCeoqL8EGxNEFAajOIE4JrdeVuqcEdZWXYAPi6IIAVGcQp4TW60rdU4K6ykuwAXF0QQCqM4hTQut1pe4pQV3lJdiAOLogANUZxCmh9bpS95SgrvISbEAcXRCA6gzilNB6Xal7SlBXeQk2II4uCEB1BnFKaL2u1D0lqKu8BBsQRxcEoDqDOCW0XlfqnhLUVV6CDYijCwJQnUGcElqvK3VPCeoqL8EGxNEFAajOIE4JrdeVuqcEdZWXYAPi6IIAVGcQp4TW60rdU4K6ykuwAXF0QQCqM4hTQut1pe4pQV3lJdiAOLogANUZxCmh9bpS95SgrvISbEAcXRCA6gzilNB6Xal7SlBXeQk2II4uCEB1BnFKaL2u1D0lqKu8BBsQRxcEoDqDOCW0XlfqnhLUVV6CDYijCwJQnUGcElqvK3VPCeoqL8EGxNEFAajOIE4JrdeVuqcEdZWXYAPi6IIAVGcQp4TW60rdU4K6ykuwAXF0QQCqM4hTQut1pe4pQV3lJdiAOLogANUZxCmh9bpS95SgrvISbEAcXRCA6gzilNB6Xal7SlBXeQk2II4uCEB1BnFKaL2u1D0lqKu8BBsQRxcEoDqDOCW0XlfqnhLUVV6CDYijCwJQnUGcElqvK3VPCeoqL8EGxNEFAajOIE4JrdeVuqcEdZWXYAPi6IIAVGcQp4TW60rdU4K6ykuwAXF0QQCqM4hTQut1pe4pQV3lJdiAOLogANUZxCmh9bpS95SgrvISbEAcXRCA6gzilNB6Xal7SlBXeQk2II4uCEB1BnFKaL2u1D0lqKu8BBsQRxcEoDqDOCW0XlfqnhLUVV6CDYijCwJQnUGcElqvK3VPCeoqL8EGxNEFAajOIE4JrdeVuqcEdZWXYAPi6IIAVGcQp4TW60rdU4K6ykuwAXF0QQCqM4gv8ItXuosf2j8uB9sz3Y9udd31F77Yvfj2v01vyDKt11Xr+3c3/POrz3R/ND0us+3P/1v3f7u3uxe//B+7N34zvSFLqau8BBsQRxcEoDqD+AJ9sPG1H3W3pt/OE2ysp/W6UvfH9cHGM//t/06/myfYWJe6ykuwAXF0QQCqM4gvsDLYuNG9cnHnIOC4/kJ37pnFt99WrdeVuj9unWDj8Fkdf94tvPkWU1d5CTYgji4IQHUG8QUWvRRlGlwMZ2z84pWL3c6Lb3d7Xx0OOZhova5a37+7YdFLUf58klwMwcY/d3937X91w4kbb794fno9A3WVl2AD4uiCAFRnEF9grZeiXO9e+OKL3ds39m67s/dfucYhrdeVuj9urZei/POr3TN/tH/s+k2wcZi6ykuwAXF0QQCqM4gvsOZ7bPRff233i9MzN5jXel2p++NWBxuH32vDGRvHqau8BBsQRxcEoDqD+AKLXopy5uFJoDEfbOx9052bflrKXbfGy2dqGvahVa3v392w6KUoZ/5kPtD45+7VZ/5odt2f7+52X/6Pb8xemtKG97qfXHnw8O9w5qHu+f/xq+l1X+n+6//Zv2UJw2OSj2AD4uiCAFRnEB+JY2eZHLz3h2DjOHU/VgvCi3/6Qfe5x/5r938EG9yBYAPi6IIAVGcQH4mVwUbdT3Jpva7U/VitGWy895PuyoP7NdBvjwWlHeoqL8EGxNEFAajOID4SC16K8vD0vT+GMzZqfpJL63XV+v5xWn14cfSlKI9Ng46DYOO9/3mte7N/dUpvFnxsTl3lJdiAOLogANUZxEfi2BkbBw5eilLvk1xaryt1P1aHz9j4px98bu5sjPnrjgQggo2tJ9iAOLogANUZxEdirWBj/+san+TSel2p+7E6HGzsf79z7M1D/+kHT00v2+OMDfYINiCOLghAdQbx5VYdm6aO3ZrBxt43VT7Jpaljs0Dr+3c3rTo2bR+7o8HGnsn7afQvRzm47r2fXOkenP4eZx7b7Xafer4bco5NtH1suBPBBsTRBQGoziC+3Kpj49gt1/qx8W+33Kpj49gt59jkJdiAOLogANUZxJdbdWwcu+VaPzb+7ZZbdWwcu+Ucm7wEGxBHFwSgOoP4cquOjWO3XOvHxr/dcquOjWO3nGOTl2AD4uiCAFRnEF9u1bFx7JZr/dj4t1tu1bFx7JZzbPISbEAcXRCA6gziy606No7dcq0fG/92y606No7dco5NXoINiKMLAlBd1CB+2vt5/fXXuy984QvdX/zFX0wvaceq3+m0v/OdDPfZ+rbKure7W6L277T3o+5XGx6n9W3eosvIQbABcXRBAKqLGsRPej9vvfVW98QTT8x+LmIfoq3arxL7Pdxn69sq697ubonav5Pej7pf3/A4rW/zFl1GDoINiKMLAlBd1CC+7v2888473TPPPDO7/f3337/2z9a2ar9K7HeJ+4y07v6N5fdYZd37UfcnV+txTmvR/rW+zywn2IA4uiAA1UUN4qvu5+bNm92VK1e6e++9d3K7D37wg903v/nNyeVR+xBt1X6V2O8S9xlp3f0by++xyqr7UfenV+txTmvR/rW+zywn2IA4uiAA1UUN4svu5/r1693zzz/fnTt3bnL9Jz7xie5b3/pW9/bbb09v0e5iYNV+ldjvEvcZad39G8vvscqy+1H3m6v1OKe1aP9a32eWE2xAHF0QgOqiBvGj99Mv4PqFXL+g6y/vF3j9Qq9f8B0VtQ/RVu1Xif0ucZ+R1t2/sfweqxy9H3Ufp9bjnNai/Wt9n1lOsAFxdEEAqosaxIf7+d3vftf98Ic/7D7+8Y/PLus//aH/FIhlhtu1ZtV+ldjvEvcZad39G8vvscpwP+o+Xq3HOa1F+9f6PrOcYAPi6IIAVBc1iA/3c/78+dnXDz/8cPfqq69Ob7HccPvWrNqvEvtd4j4jrbt/Y/k9VhnuR93Hq/U4p7Vo/1rfZ5YTbEAcXRCA6oZB3LZ8W2bRbaO2Vi3a1zttrVq0r7bD2zKLbltya9WifR028hFsQBxdEIDqFg3ltsPbMotuG7W1atG+3mlr1aJ9tR3elll025Jbqxbt67CRj2AD4uiCAKQ1DPQf+chHZl9funSpe+utt6a3WG64fWtW7VeJ/S5xn5Fa37/ahuOh7uPVepzTan3/OBnBBsTRGQFIaxjyf/3rX3ff+c53urNnz84uu3z5cvfOO+9Mb3nccLvWrNqvEvtd4j4jtb5/tQ3HQ93Hq/U4p9X6/nEygg2IozMCkNbRId/HXp5OifuM1Pr+1Xb0eKj7OLUe57Ra3z9ORrABcXRGANJaNuT3C7p+Ydcv8Prr+wVfv/DrF4CDVhcIq/arxH6XuM9Ire9fbcuOh7rfXK3HOa3W94+TEWxAHJ0RgLRWDfn9ew707z0w3K5/T4Lvfve73W9/+9uVP3u3rNqvEvtd4j4jtb5/ta06Hur+9Go9zmm1vn+cjGAD4uiMAKS17pD/+uuvd48++ujs9sMp++v8bG2r9qvEfpe4z0it719t6x4PdX9ytR7ntFrfP05GsAFxdEYA0jrpkP/qq692Fy5cmP1ciwuEVftVYr+H+2x9Y99Jj4e6X9/wOK1vjINgA+LojACkdZoh/3e/+133wx/+sHv44Ye7xx9/fHppO1b9Tqf5nVcZ7rP1jX2nOR7qfj3D47S+MQ6CDYijMwJAQ1YtXCxsGCN1zzYSbEAczxAA0BALPLaRumcbCTYgjmcIAGiIBR7bSN2zjQQbEMczBAA0xAKPbaTu2UaCDYjjGQIAGmKBxzZS92wjwQbE8QwBAA2xwGMbqXu2kWAD4niGAAAAqEywAXEEGwAAAJUJNiCOYAMAAKAywQbEEWwAAAAAaQk2AAAAgLQEGwAAAEBagg0AAAAgLcEGAAAAkJZgAwAAAEhLsAEAAACkJdgAAAAA0hJsAAAAAGkJNgAAAIC0BBsAAABAWoINAAAAIC3BBgAAAJCWYAMAAABIS7ABAAAApCXYAAAAANISbAAAAABpCTYAAACAtAQbAAAAQFqCDQAAACAtwQYAAACQlmADAAAASEuwAQAAAKQl2AAAAADSEmwAAAAAaQk2AAAAgLQEGwAAAEBagg0AAAAgLcEGAAAAkJZgAwAAAEhLsAEAAACkJdgAAAAA0hJsAAAAAGkJNgAAAIC0BBsAAABAWoINAAAAIC3BBgAAAJCWYAMAAABIS7ABAAAApCXYAAAAANISbAAAAABpCTYAAACAtAQbAAAAQFqCDQAAACAtwQYAAACQlmADAAAASEuwAQAAAKQl2AAAAADSEmwAAAAAaQk2AAAAgLQEGwAAAEBagg0AAAAgLcEGAAAAkJZgAwAAAEhLsAEAAACkJdgAAAAA0hJsAAAAAGkJNgAAAIC0BBsAAABAWoINAAAAIC3BBgAAAJCWYAMAAABIS7ABAAAApCXYAAAAANISbAAAAABpCTYAAACAtAQbAAAAQFqCDQAAACAtwQYAAACQlmADAAAASEuwAQAAAKQl2AAAAADSEmwAAAAAaQk2AAAAgLQEGwAAAEBagg0AAAAgLcEGAAAAkJZgAwAAAEhLsAEAAACkJdgAAAAA0hJsAAAAAGkJNgAAAIC0BBsAAABAWoINAAAAIC3BBgAAAJCWYAMAAABIS7ABAAAApCXYAAAAANISbAAAAABpCTYAAACAtAQbAAAAQFqCDQAAACAtwQYAAACQlmADAAAASEuwAQAAAKQl2AAAAADSEmwAAAAAaQk2AAAAgLQEGwAAAEBagg0AAAAgLcEGAAAAkJZgAwAAAEhLsAEAAACkJdgAAAAA0hJsAAAAAGkJNgAAAIC0BBsAAABAWoINAAAAIC3BBgAAAJCWYAMAAABIS7ABAAAApCXYAAAAANISbAAAAABpCTYAAACAtAQbAAAAQFqCDQAAACAtwQYAAACQlmADAAAASEuwAQAAAKQl2AAAAADSEmwAAAAAaQk2AAAAgLQEGwAAAEBagg0AAAAgLcEGAAAAkJZgAwAAAEhLsAEAAACkJdgAAAAA0hJsAAAAAGkJNgAAAIC0BBsAAABAWoINAAAAIC3BBgAAAJCWYAMAAABIS7ABAAAApCXYAAAAANISbAAAAABpCTYAAACAtAQbAAAAQFqCDQAAACAtwQYAAACQlmADAAAASEuwAQAAAKQl2AAAAADSEmwAAAAAaQk2AAAAgLQEGwAAAEBagg0AAAAgLcEGAAAAkJZgAwAAAEhLsAEAAACkJdgAAAAA0hJsAAAAAGkJNgAAAIC0BBsAAABAWoINAAAAIC3BBgAAAJCWYAMAAABIS7ABAAAApCXYAAAAANISbAAAAABpCTYAAACAtAQbAAAAQFqCDQAAACAtwQYAAACQlmADAAAASEuwAQAAAKQl2AAAAADSEmwAAAAAaQk2AAAAgKS67v8D9LdqMgoRzWYAAAAASUVORK5CYII=;rotation=-90;" parent="1" vertex="1">
          <mxGeometry x="390" y="-10" width="1078" height="733" as="geometry" />
        </mxCell>
        <mxCell id="UJ65HYksv7-CHMOgC7f_-6" value="" style="rounded=0;whiteSpace=wrap;html=1;fillColor=none;dashed=1;dashPattern=8 8;" parent="1" vertex="1">
          <mxGeometry x="564" y="12" width="650" height="500" as="geometry" />
        </mxCell>
        <mxCell id="UJ65HYksv7-CHMOgC7f_-18" value="" style="rounded=0;whiteSpace=wrap;html=1;fillColor=none;" parent="1" vertex="1">
          <mxGeometry x="-24" y="1" width="1274" height="545" as="geometry" />
        </mxCell>
        <mxCell id="UJ65HYksv7-CHMOgC7f_-4" value="&lt;font style=&quot;font-size: 30px;&quot;&gt;&lt;b&gt;Thoracic Cavity&lt;/b&gt;&lt;/font&gt;" style="text;html=1;strokeColor=none;fillColor=none;align=center;verticalAlign=middle;whiteSpace=wrap;rounded=0;" parent="1" vertex="1">
          <mxGeometry x="373" y="34" width="160" height="30" as="geometry" />
        </mxCell>
        <mxCell id="UJ65HYksv7-CHMOgC7f_-5" value="&lt;font size=&quot;1&quot; style=&quot;&quot;&gt;&lt;b style=&quot;font-size: 25px;&quot;&gt;Pericardium&lt;/b&gt;&lt;/font&gt;" style="text;html=1;strokeColor=none;fillColor=none;align=center;verticalAlign=middle;whiteSpace=wrap;rounded=0;" parent="1" vertex="1">
          <mxGeometry x="934" y="43" width="160" height="30" as="geometry" />
        </mxCell>
        <mxCell id="UJ65HYksv7-CHMOgC7f_-7" value="&lt;font size=&quot;1&quot; style=&quot;&quot;&gt;&lt;span style=&quot;font-size: 20px;&quot;&gt;&lt;i&gt;Right Atrium&lt;/i&gt;&lt;/span&gt;&lt;/font&gt;" style="text;html=1;strokeColor=none;fillColor=none;align=center;verticalAlign=middle;whiteSpace=wrap;rounded=0;rotation=-90;" parent="1" vertex="1">
          <mxGeometry x="503" y="380" width="160" height="30" as="geometry" />
        </mxCell>
        <mxCell id="UJ65HYksv7-CHMOgC7f_-8" value="&lt;font size=&quot;1&quot; style=&quot;&quot;&gt;&lt;span style=&quot;font-size: 20px;&quot;&gt;&lt;i&gt;Right Ventricle&lt;/i&gt;&lt;/span&gt;&lt;/font&gt;" style="text;html=1;strokeColor=none;fillColor=none;align=center;verticalAlign=middle;whiteSpace=wrap;rounded=0;rotation=-90;" parent="1" vertex="1">
          <mxGeometry x="503" y="201" width="160" height="30" as="geometry" />
        </mxCell>
        <mxCell id="UJ65HYksv7-CHMOgC7f_-9" value="&lt;font size=&quot;1&quot; style=&quot;&quot;&gt;&lt;span style=&quot;font-size: 20px;&quot;&gt;&lt;i&gt;Left Atrium&lt;/i&gt;&lt;/span&gt;&lt;/font&gt;" style="text;html=1;strokeColor=none;fillColor=none;align=center;verticalAlign=middle;whiteSpace=wrap;rounded=0;rotation=-90;" parent="1" vertex="1">
          <mxGeometry x="1061" y="190" width="160" height="30" as="geometry" />
        </mxCell>
        <mxCell id="UJ65HYksv7-CHMOgC7f_-10" value="&lt;font size=&quot;1&quot; style=&quot;&quot;&gt;&lt;span style=&quot;font-size: 20px;&quot;&gt;&lt;i&gt;Left Ventricle&lt;/i&gt;&lt;/span&gt;&lt;/font&gt;" style="text;html=1;strokeColor=none;fillColor=none;align=center;verticalAlign=middle;whiteSpace=wrap;rounded=0;rotation=-90;" parent="1" vertex="1">
          <mxGeometry x="1061" y="394" width="160" height="30" as="geometry" />
        </mxCell>
        <mxCell id="UJ65HYksv7-CHMOgC7f_-11" value="&lt;font size=&quot;1&quot; style=&quot;&quot;&gt;&lt;span style=&quot;font-size: 20px;&quot;&gt;&lt;i&gt;Pulmonary Circulation&lt;/i&gt;&lt;/span&gt;&lt;/font&gt;" style="text;html=1;strokeColor=none;fillColor=none;align=center;verticalAlign=middle;whiteSpace=wrap;rounded=0;rotation=0;" parent="1" vertex="1">
          <mxGeometry x="713" y="129" width="160" height="30" as="geometry" />
        </mxCell>
        <mxCell id="UJ65HYksv7-CHMOgC7f_-12" value="&lt;font size=&quot;1&quot; style=&quot;&quot;&gt;&lt;span style=&quot;font-size: 20px;&quot;&gt;&lt;i&gt;Inferior Vena Cava&lt;/i&gt;&lt;/span&gt;&lt;/font&gt;" style="text;html=1;strokeColor=none;fillColor=none;align=center;verticalAlign=middle;whiteSpace=wrap;rounded=0;rotation=-90;" parent="1" vertex="1">
          <mxGeometry x="589" y="605" width="160" height="30" as="geometry" />
        </mxCell>
        <mxCell id="UJ65HYksv7-CHMOgC7f_-13" value="&lt;font size=&quot;1&quot; style=&quot;&quot;&gt;&lt;span style=&quot;font-size: 20px;&quot;&gt;&lt;i&gt;Systemic Circulation&lt;/i&gt;&lt;/span&gt;&lt;/font&gt;" style="text;html=1;strokeColor=none;fillColor=none;align=center;verticalAlign=middle;whiteSpace=wrap;rounded=0;rotation=0;" parent="1" vertex="1">
          <mxGeometry x="713" y="709" width="160" height="30" as="geometry" />
        </mxCell>
        <mxCell id="UJ65HYksv7-CHMOgC7f_-15" value="" style="rounded=0;whiteSpace=wrap;html=1;fillColor=none;strokeWidth=1;dashed=1;dashPattern=8 8;" parent="1" vertex="1">
          <mxGeometry x="20" y="69" width="331" height="219" as="geometry" />
        </mxCell>
        <mxCell id="UJ65HYksv7-CHMOgC7f_-16" value="" style="shape=image;verticalLabelPosition=bottom;labelBackgroundColor=default;verticalAlign=top;aspect=fixed;imageAspect=0;image=data:image/png,iVBORw0KGgoAAAANSUhEUgAAASAAAABUCAYAAAAiR+rjAAAIeklEQVR4Ae2cv2sUSxzA9yWFhRZ2+gdYWAivMWSvCgQLCwP2NhJEcEnhH+AfYBvI+cDaPp28uwevTWEjWEiOVwgWFnaxEcR8HzN7s7d32Z3Z+zG7M3cfIdxlvrsz3/nMzoeZWUwi/IMABCDQEYGko3ZpFgIQgIAgIB4CCECgMwIIqDP0NAwBCCAgngEIQKAzAgioM/Q0DAEIICCeAQhAoDMCCKgz9DQMAQggIJ4BCECgMwIIqDP0NAwBCCAgngEIQKAzAgioM/Q0DAEIICCeAQhAoDMCCKgz9DQMAQggIJ6Bdgj8/Civ/0wkSco/t+TVWU3z6vr9V1IXrrmL4sgIIKDIBizadOcVyrzXRwtmsxNHQJs9/u313iaUi1N5UqyMrsvBuy8i5nr1mR6IKlL/Lk6fyK3aZVN73aGl1RBAQKvhSC0uAkoks1uwW/kW62I4LLZaPz++lvTgnXwxApKf8vF1OpFSSUauJomHTwABhT9G65FhIZSq7lzI6ZPJ2dD1KQHpZY8cHryTkZFTVRWURUkAAUU5bBEmXSsgtcLZLw6jr66AVF8v5PRwX7LD8Uoowu6TcjUBBFTNJZzS8xPZLc5H8lXCH703Mgonw2aZVG3Bkvy8R53rmLdj1/czOVRvv2aEpa8Zb9maNchVMRBAQKGP0vmJ9I7+KWV5KYMXWzJVVIryFQIxEUBAoY+WVUDncrI7OTvZUla6HMiLrSNRyrocvJAkGcuqVB56l8lvcwggoNDHumILpkWj8h4NZWj2YoVgJiuk85NU0jSV3puRllFxX+h9Jr+NIYCAQh/q8gqokMwk6fOT3eL8JCmtfLaOhjLIetIfqC3ckG3bBBnfAiKAgAIajMpUygJSF5yfSDo+hL4cZHp1o+8ry+lyIFmayq4SkvreyyTr5duyyjYohEBHBBBQR+AbNzsrIO2gXdHbqfL2bCuTLOvJG70ly8+G8rdl+fcQt1/mzVcdC1e87j7K4yGAgOIZq7XL1CUYV3ztgGxghxDQBg56KF12CcYVD6Uf5LE4AQS0ODvuXJKASzCu+JLNc3sABBBQAIOwqSm4BOOKbyq3deo3Alqn0YysLy7BuOKRdZd0KwggoAoovovMxAr9sy0Ode0YPnVxyuMngIA6GEMzsUL/9I3G9L+uHVe87j7K4yGAgDoYq9AnVlv5udpxxTsYOppcMQEEtGKgTaoLfWK1lZ+rHVe8CWuuCZtAYwH9ev988n+Oir9Pc01e/ht2B0PMLvSJ1VZ+rnZc8RDHNqychpIVc3XyVxOSbBhMmvMJ6NpLKfvm9+dj2ZkpW7ZnP378kKOjI7l3757+efbsmXz79m3ZaoO6P/SJ1VZ+rnZc8aAGtaVk5psfuYCmfTOSfprIdFlLyVc0s5SA5Nd7eb69J2//UzX/kvfPS5Yti+n3ZzneMbH6VZOCe/fu3Ssrrdu3b8vXr18r0o+zKPSJ1VZ+rnZc8ThHf/Gs558fVQISGWaJpP2RyKgvaZJJv5+O51wq/VFp1WQsNb6uWDcNM0nS/vivcpauT+YX21IC0tsyLZrf8vl4R7b33op2kRbOtuxpM+ViMjF9TyGt6cFQKx/10N2/f1/Ozs7kw4cP8vDhQ132+PHj6Ysj/i30idVWfq52XPGIH4GFUp9/flQJqFSmxTKWkeRiShIlIfW3ppScyt8zqRJQITPVI3VPIaZmXZxPQLP7yRqR5KuhsYC0jEqrnik5TSeptl3qoVPyMf/Uysc8iOv2afoY2mfbnOv633YesbRXNT9u3rxZgXF6dWL6p1c/6uqyZPSvqUzOh9S9cwqoIgNX0XwCKm+rZmtW27EpQY0FpMtLAtJbNbM6mq7kzp07WjafPn0qAt+/f0dABY12vpgHta3Pul611X5s7VTNjxs3blRgLK12KqJmC2ZWNiO1FTPbLmkmIJH8TClnOBZWVVs1ZSsSUL7Nula8ElO/z78Cevr0qZaN2napg2clH1P24MGDmi7EV2we+FAzbys/VzuueKj8fOVl5kLz+eFHQFpUVVstvaIqbdUagPAiIP12LDGrnOZnQEo66sDZPHjmU9m9bP0G/Qr6EtOvUJNsKz9XO654qPx85TX//FilgMwB83jFowU080bN+xmQZQuWSyd/07W995f8fbwjxYqo4VswNXDqzOfRo0eipKN+1MpnneSj+hj6xGorP1c7rriviR5yvfPNjxUJyJwP6SOWVPr90lswveoxb7g9bsFCHpTYcgt9YrWVn6sdVzy2cSffqwQab8Gu3krJogRCn1ht5edqxxVflD/3hUMAAXUwFqFPrLbyc7XjincwdDS5YgIIaMVAm1RnJlbon036ssw1pv91dbjidfdRHg8BBNTBWJmJFfqnbzSm/3XtuOJ191EeDwEEFM9YrV2mLsG44msHZAM7hIA2cNBD6bJLMK54KP0gj8UJIKDF2XHnkgRcgnHFl2ye2wMggIACGIRNTcElGFd8U7mtU78R0DqNZmR9cQnGFY+su6RbQQABVUChqB0CLsG44u1kSSs+CSAgn3SpGwIQsBJAQFY8BCEAAZ8EEJBPutQNAQhYCSAgKx6CEICATwIIyCdd6oYABKwEEJAVD0EIQMAnAQTkky51QwACVgIIyIqHIAQg4JMAAvJJl7ohAAErAQRkxUMQAhDwSQAB+aRL3RCAgJUAArLiIQgBCPgkgIB80qVuCEDASgABWfEQhAAEfBJAQD7pUjcEIGAlgICseAhCAAI+CSAgn3SpGwIQsBJAQFY8BCEAAZ8EEJBPutQNAQhYCSAgKx6CEICATwIIyCdd6oYABKwEEJAVD0EIQMAnAQTkky51QwACVgIIyIqHIAQg4JMAAvJJl7ohAAErAQRkxUMQAhDwSQAB+aRL3RCAgJUAArLiIQgBCPgk8D/oG7Mf3hRv8QAAAABJRU5ErkJggg==;" parent="1" vertex="1">
          <mxGeometry x="45.99529411764708" y="170.9988235294117" width="288" height="84" as="geometry" />
        </mxCell>
        <mxCell id="UJ65HYksv7-CHMOgC7f_-17" value="&lt;font size=&quot;1&quot; style=&quot;&quot;&gt;&lt;b style=&quot;font-size: 25px;&quot;&gt;Respiratory System&lt;/b&gt;&lt;/font&gt;" style="text;html=1;strokeColor=none;fillColor=none;align=center;verticalAlign=middle;whiteSpace=wrap;rounded=0;" parent="1" vertex="1">
          <mxGeometry x="105.5" y="99" width="160" height="30" as="geometry" />
        </mxCell>
        <mxCell id="UJ65HYksv7-CHMOgC7f_-19" value="" style="rounded=0;whiteSpace=wrap;html=1;fillColor=none;" parent="1" vertex="1">
          <mxGeometry x="-24" y="546" width="1275" height="336" as="geometry" />
        </mxCell>
        <mxCell id="UJ65HYksv7-CHMOgC7f_-20" value="&lt;font style=&quot;font-size: 30px;&quot;&gt;&lt;b&gt;Abdominal Cavity&lt;/b&gt;&lt;/font&gt;" style="text;html=1;strokeColor=none;fillColor=none;align=center;verticalAlign=middle;whiteSpace=wrap;rounded=0;" parent="1" vertex="1">
          <mxGeometry x="423" y="601" width="60" height="30" as="geometry" />
        </mxCell>
        <mxCell id="UJ65HYksv7-CHMOgC7f_-21" value="TCV" style="text;html=1;strokeColor=none;fillColor=none;align=center;verticalAlign=middle;whiteSpace=wrap;rounded=0;rotation=-90;" parent="1" vertex="1">
          <mxGeometry x="579" y="341.5" width="60" height="30" as="geometry" />
        </mxCell>
        <mxCell id="UJ65HYksv7-CHMOgC7f_-22" value="PMV" style="text;html=1;strokeColor=none;fillColor=none;align=center;verticalAlign=middle;whiteSpace=wrap;rounded=0;rotation=-90;" parent="1" vertex="1">
          <mxGeometry x="579" y="152" width="60" height="30" as="geometry" />
        </mxCell>
        <mxCell id="UJ65HYksv7-CHMOgC7f_-23" value="MV" style="text;html=1;strokeColor=none;fillColor=none;align=center;verticalAlign=middle;whiteSpace=wrap;rounded=0;rotation=-90;" parent="1" vertex="1">
          <mxGeometry x="1053" y="247" width="60" height="30" as="geometry" />
        </mxCell>
        <mxCell id="UJ65HYksv7-CHMOgC7f_-24" value="AOV" style="text;html=1;strokeColor=none;fillColor=none;align=center;verticalAlign=middle;whiteSpace=wrap;rounded=0;rotation=-90;" parent="1" vertex="1">
          <mxGeometry x="1053" y="439" width="60" height="30" as="geometry" />
        </mxCell>
        <mxCell id="UJ65HYksv7-CHMOgC7f_-25" value="ra = Right Atrium&lt;br&gt;rv = Right Ventricle&lt;br&gt;pa = Pulmonary Artery&lt;br&gt;pc = Pulmonary Capillaries&lt;br&gt;pv = Pulmonary Veins&lt;br&gt;la = Left Atrium&lt;br&gt;lv = Left Ventricle&lt;br&gt;msa = Mean Systemic Arterial&lt;br&gt;msv = Mean Systemic Venous&lt;br&gt;TCV = Tricuspid Valve&lt;br&gt;PMV = Pulmonary Valve&lt;br&gt;MV = Mitral Valve&lt;br&gt;AOV = Aortic Valve" style="rounded=1;whiteSpace=wrap;html=1;dashed=1;dashPattern=1 4;" parent="1" vertex="1">
          <mxGeometry x="9" y="585" width="280" height="268" as="geometry" />
        </mxCell>
        <mxCell id="UJ65HYksv7-CHMOgC7f_-26" value="&lt;font size=&quot;1&quot; style=&quot;&quot;&gt;&lt;b style=&quot;font-size: 20px;&quot;&gt;Legend&lt;/b&gt;&lt;/font&gt;" style="text;html=1;strokeColor=none;fillColor=none;align=center;verticalAlign=middle;whiteSpace=wrap;rounded=0;" parent="1" vertex="1">
          <mxGeometry x="119" y="596" width="60" height="30" as="geometry" />
        </mxCell>
      </root>
    </mxGraphModel>
  </diagram>
</mxfile>
